<svg xmlns="http://www.w3.org/2000/svg" width="208" height="232" viewBox="0 0 208 232">
<defs><radialGradient id="bg"><stop stop-color="#364c52"/><stop offset="1" stop-color="#18272e"/></radialGradient><linearGradient id="coat" x2="0.9" y2="1"><stop stop-color="#48665f"/><stop offset="1" stop-color="#233841"/></linearGradient></defs>
<rect width="208" height="232" rx="22" fill="url(#bg)"/>
<path d="M19 181L49 155L64 170L84 136L113 171L138 147L187 184" fill="none" stroke="#8d9e95" stroke-opacity=".2" stroke-width="2"/>
<circle cx="163" cy="38" r="14" fill="#ecd8a3" opacity=".72"/>
<path d="M27 229 Q31 160 83 151 L122 150 Q176 155 184 232" fill="url(#coat)"/>
<path d="M58 131 Q39 92 58 51 Q82 22 119 37 Q155 42 154 96 L147 161 L125 162 L123 122 L79 127 L78 160 L49 153 Z" fill="#34272b"/>
<path d="M85 129 L83 157 Q102 180 125 156 L123 128" fill="#d6a477"/>
<path d="M66 78 Q67 48 103 48 Q140 50 140 83 L135 120 Q127 143 105 146 Q77 140 69 116Z" fill="#d6a477"/>
<path d="M65 84 Q92 80 103 56 Q114 79 141 83 Q137 36 99 38 Q59 43 65 84" fill="#34272b"/>
<path d="M103 101 L99 116 L106 118" stroke="#9c634d" stroke-width="2" fill="none" stroke-linecap="round"/>
<path d="M81 101 L90 101 M114 101 L123 101" stroke="#302c31" stroke-width="3.4" fill="none" stroke-linecap="round"/>
<path d="M77 90 Q85 86 94 91 M113 91 Q121 86 131 90" stroke="#34272b" stroke-width="3" fill="none"/>
<path d="M95 126 Q106 120 118 125" stroke="#815246" stroke-width="2.2" fill="none" stroke-linecap="round"/>
<path d="M128 133 L119 153 L136 164 L145 145Z" fill="#c18b55"/><circle cx="132" cy="122" r="4" fill="#d8b16a"/>
<path d="M79 151 L103 170 L129 150 L136 166 L113 192 L90 184 L69 164" fill="#b78252"/>
<path d="M103 180 L106 230" stroke="#22363c" stroke-width="3"/>
<circle cx="152" cy="195" r="10" fill="#c3a467"/>
<path d="M147 195L151 199L158 190" stroke="#3c4e4c" stroke-width="2" fill="none"/>
<rect x="5" y="5" width="198" height="222" rx="18" fill="none" stroke="#d0af71" stroke-opacity=".5"/>
</svg>